<?xml version="1.0" standalone="no"?>
<!DOCTYPE svg PUBLIC "-//W3C//DTD SVG 20010904//EN"
 "http://www.w3.org/TR/2001/REC-SVG-20010904/DTD/svg10.dtd">
<svg version="1.0" xmlns="http://www.w3.org/2000/svg"
 width="500.000000pt" height="444.000000pt" viewBox="0 0 500.000000 444.000000"
 preserveAspectRatio="xMidYMid meet">

<g transform="translate(0.000000,444.000000) scale(0.100000,-0.100000)"
fill="#000000" stroke="none">
<path d="M212 4338 c-7 -57 -16 -157 -22 -223 -6 -66 -13 -140 -15 -165 -3
-25 -14 -144 -25 -265 -12 -121 -27 -285 -35 -365 -8 -80 -19 -199 -25 -265
-6 -66 -15 -154 -20 -195 -6 -41 -15 -127 -20 -190 -5 -63 -14 -171 -20 -240
-6 -69 -15 -135 -20 -148 -6 -14 -10 -455 -10 -1152 l0 -1130 2500 0 2500 0 0
1214 c0 1148 -1 1215 -17 1219 -17 4 -17 5 0 6 16 1 17 56 17 1001 l0 1000
-2389 0 -2388 0 -11 -102z m1306 -510 c-23 -4 -44 -5 -47 -3 -2 3 3 5 11 5 9
0 21 7 28 15 9 11 16 12 31 2 18 -11 15 -13 -23 -19z m1392 16 c0 -10 -7 -14
-22 -12 -32 5 -35 28 -4 28 17 0 26 -5 26 -16z m145 0 c22 -3 55 -18 73 -31
29 -22 38 -24 58 -14 21 9 34 6 87 -21 34 -17 75 -40 90 -51 21 -14 31 -16 41
-8 10 9 15 8 20 -4 3 -8 12 -15 20 -15 8 0 22 -10 30 -22 9 -13 35 -27 58 -33
30 -7 46 -18 59 -40 9 -16 22 -29 28 -27 15 3 14 -10 -5 -36 -12 -18 -19 -20
-29 -12 -8 7 -19 9 -25 5 -5 -3 -16 -3 -22 2 -7 4 -29 13 -48 20 -28 10 -37
10 -45 0 -17 -22 -43 -27 -49 -10 -5 11 -14 14 -35 10 -21 -5 -31 -2 -35 10
-4 10 -14 13 -28 10 -15 -4 -30 3 -56 29 -18 18 -39 34 -45 34 -7 0 -27 9 -45
20 -18 11 -41 20 -52 20 -13 0 -20 7 -20 20 0 30 -28 80 -44 80 -7 0 -19 6
-25 14 -6 7 -22 11 -34 9 -26 -5 -57 19 -57 44 0 15 30 15 135 -3z m-2035
-160 c0 -13 -3 -14 -14 -5 -12 10 -17 8 -26 -9 -6 -12 -14 -19 -17 -16 -3 3
-12 -1 -20 -9 -8 -8 -24 -15 -35 -15 -13 0 -18 -5 -15 -14 3 -8 -1 -20 -9 -26
-8 -7 -14 -18 -14 -26 0 -7 -6 -17 -14 -21 -7 -4 -23 -26 -34 -49 -23 -46 -41
-63 -70 -69 -24 -4 -62 -27 -62 -37 0 -5 -5 -8 -12 -8 -22 0 -87 -35 -88 -47
0 -7 -16 -24 -35 -39 -25 -19 -35 -34 -35 -55 0 -20 -9 -35 -34 -54 -21 -16
-36 -38 -40 -58 -5 -25 -9 -29 -16 -17 -8 12 -10 12 -16 -3 -4 -12 -10 -15
-19 -7 -15 13 -25 3 -25 -27 0 -12 -4 -23 -10 -23 -5 0 -10 -7 -10 -16 0 -8
-7 -38 -16 -65 -12 -35 -21 -48 -31 -45 -10 4 -11 1 -4 -12 6 -11 3 -31 -10
-62 l-18 -45 1 55 c0 49 22 120 39 128 3 1 4 14 1 27 -3 17 2 30 17 43 14 11
24 33 28 60 3 23 10 42 14 42 5 0 9 11 9 25 0 15 6 25 14 25 15 0 26 21 26 48
0 37 140 212 169 212 5 0 13 9 16 20 3 11 13 20 21 20 8 0 22 9 31 20 10 11
25 20 34 20 10 0 19 3 21 8 2 4 39 25 83 47 44 22 86 48 93 57 7 10 25 18 40
19 15 0 36 4 47 9 31 13 45 11 45 -6z m1135 -44 c4 -7 12 -7 25 0 13 7 19 6
24 -5 6 -16 36 -21 36 -5 0 12 83 -25 88 -39 5 -15 29 -14 34 0 4 13 103 -15
113 -32 7 -11 45 -12 45 -1 0 14 74 1 93 -16 14 -13 20 -13 26 -4 6 9 15 10
34 3 18 -7 28 -7 33 0 3 6 16 8 28 5 11 -3 27 -1 35 4 9 5 19 3 29 -6 10 -11
18 -12 27 -4 14 12 81 4 101 -11 12 -10 49 -7 60 4 12 12 24 8 24 -8 0 -11 7
-14 23 -11 68 14 97 16 97 6 0 -15 16 -12 34 6 14 13 16 13 16 1 0 -17 27 -30
42 -21 5 3 18 -2 29 -12 18 -17 20 -16 43 5 23 21 52 20 68 -3 4 -6 12 -5 22
4 9 7 17 11 19 9 1 -2 7 -13 13 -24 6 -11 43 -36 82 -55 42 -21 74 -43 78 -55
8 -23 39 -55 54 -55 5 0 10 -10 11 -22 0 -13 3 -17 6 -10 8 21 21 13 28 -18 4
-16 11 -30 16 -30 5 0 21 -27 36 -60 20 -44 33 -60 48 -60 22 -1 54 -25 71
-55 7 -11 19 -19 28 -19 9 1 23 -11 32 -27 8 -16 23 -29 33 -29 12 0 21 -10
25 -25 4 -14 12 -25 19 -25 8 0 27 -19 44 -42 17 -24 43 -56 57 -73 14 -16 26
-33 26 -36 0 -3 11 -19 25 -35 14 -16 25 -32 25 -35 0 -4 16 -17 35 -30 19
-13 35 -32 35 -41 0 -9 6 -23 13 -30 18 -20 37 -66 37 -93 0 -14 8 -29 20 -35
11 -6 20 -20 20 -31 0 -11 14 -47 31 -81 18 -36 29 -71 26 -84 -3 -17 3 -28
20 -39 13 -9 21 -20 19 -24 -3 -4 0 -23 6 -42 26 -81 36 -116 42 -141 4 -16
12 -28 20 -28 7 0 16 -13 19 -29 7 -35 35 -64 53 -57 16 6 38 -29 30 -49 -2
-7 2 -16 10 -19 9 -3 13 -10 9 -16 -7 -12 13 -52 31 -63 8 -4 14 -17 14 -28 0
-11 7 -22 15 -25 9 -4 15 -19 15 -39 0 -19 4 -36 9 -40 6 -3 9 -13 9 -23 0 -9
3 -43 7 -74 5 -34 4 -63 -2 -70 -5 -7 -9 -34 -7 -61 1 -26 -3 -50 -8 -53 -5
-3 -6 -18 -3 -33 4 -19 1 -32 -10 -41 -9 -8 -15 -29 -15 -56 0 -33 -4 -44 -16
-44 -10 0 -15 -8 -14 -22 5 -53 1 -59 -27 -52 l-28 7 23 -19 23 -19 -31 -37
c-17 -21 -36 -38 -42 -38 -22 0 -77 -33 -81 -48 -3 -10 -5 -5 -6 11 0 15 -5
27 -11 27 -5 0 -9 -3 -8 -7 6 -31 -34 -57 -46 -30 -3 6 -4 0 -1 -15 7 -35 -7
-43 -30 -18 -24 27 -35 25 -35 -6 0 -16 -5 -24 -12 -21 -7 2 -12 14 -10 25 4
30 -16 28 -30 -3 -7 -17 -18 -23 -32 -21 -22 3 -46 -15 -46 -34 0 -6 -4 -8
-10 -5 -5 3 -20 0 -32 -7 -13 -7 -29 -11 -36 -9 -8 1 -22 -5 -33 -15 -23 -21
-49 -12 -49 18 -1 21 -2 21 -11 5 -8 -13 -6 -21 6 -34 16 -15 16 -18 -3 -32
-11 -9 -22 -22 -24 -30 -3 -11 -9 -9 -26 9 -21 23 -22 23 -22 3 0 -28 -54 -88
-73 -80 -10 4 -17 -1 -20 -14 -3 -12 -11 -17 -20 -13 -14 5 -40 -14 -51 -38
-5 -10 -7 -10 -12 0 -8 17 -25 15 -18 -3 5 -12 -2 -15 -29 -15 -23 0 -37 6
-41 17 -6 15 -8 15 -19 0 -10 -14 -19 -14 -60 -6 -29 7 -53 7 -60 2 -7 -5 -34
-8 -62 -6 -27 1 -85 4 -128 5 -72 3 -79 5 -102 33 -32 39 -31 60 4 93 27 25
51 62 51 78 0 16 -65 -8 -97 -36 -18 -16 -39 -30 -46 -30 -6 0 -22 -12 -34
-26 -20 -24 -23 -25 -29 -9 -4 9 -3 20 2 24 5 3 10 13 12 21 2 10 -4 7 -18 -7
-21 -23 -32 -29 -28 -15 2 4 -1 7 -7 7 -5 0 -10 -8 -9 -18 0 -9 -3 -17 -8 -17
-7 0 -10 8 -7 26 2 14 -26 22 -39 12 -15 -13 -28 0 -39 42 -6 24 -20 40 -36
40 -4 0 -5 -11 -1 -25 7 -28 -2 -31 -41 -13 -19 9 -28 9 -37 0 -7 -7 -20 -12
-31 -12 -14 0 -17 5 -12 20 4 11 2 20 -4 20 -6 0 -11 11 -11 25 0 14 -5 25
-11 25 -13 0 -3 -69 12 -84 5 -6 9 -17 9 -26 0 -15 -5 -15 -60 -2 -33 8 -62
13 -65 11 -2 -3 3 -24 11 -48 8 -25 11 -47 7 -50 -5 -3 -14 -18 -20 -33 -7
-16 -17 -28 -23 -28 -5 0 -10 -7 -10 -15 0 -9 -9 -15 -24 -15 -15 0 -26 -7
-28 -17 -2 -14 -14 -18 -46 -19 -23 0 -42 4 -42 9 0 4 -8 6 -17 3 -10 -3 -30
1 -45 9 -18 8 -41 12 -65 8 -27 -5 -34 -3 -29 6 6 9 2 9 -13 -1 -18 -11 -23
-11 -30 1 -5 8 -18 12 -30 8 -22 -5 -71 12 -71 26 0 4 -11 5 -25 1 -16 -4 -30
0 -40 10 -12 11 -22 13 -40 6 -16 -6 -35 -5 -55 2 -17 5 -34 8 -37 5 -3 -3
-14 2 -25 12 -16 16 -26 17 -60 10 -27 -7 -44 -6 -54 2 -7 6 -18 8 -23 5 -5
-4 -12 -2 -16 4 -3 5 -17 10 -30 10 -13 0 -27 4 -30 10 -3 5 -15 10 -25 10
-10 0 -20 5 -22 12 -3 8 -11 7 -28 -5 -14 -9 -30 -17 -36 -17 -14 0 -25 48
-12 52 5 2 11 21 15 42 l6 39 -29 -29 c-25 -25 -37 -30 -87 -31 -51 -2 -58 0
-53 15 2 9 7 31 11 48 6 30 5 31 -22 26 -15 -2 -33 -9 -40 -14 -7 -5 -16 -7
-20 -5 -5 3 -15 -8 -22 -24 -19 -43 -33 -35 -26 16 5 45 -10 64 -21 28 -3 -10
-11 -31 -17 -47 l-11 -30 -9 34 c-7 29 -10 32 -18 17 -11 -20 -49 -23 -49 -4
0 7 -3 8 -8 2 -13 -19 -30 -15 -25 5 3 11 10 20 16 20 6 0 8 3 5 6 -11 10 -48
-20 -48 -39 0 -10 -5 -15 -10 -12 -7 4 -7 12 0 25 5 10 10 30 10 44 0 24 -1
24 -27 10 -16 -7 -34 -14 -40 -14 -19 0 -16 40 4 62 9 10 11 18 5 18 -6 0 -15
-6 -19 -12 -12 -19 -66 -46 -80 -41 -7 3 -13 13 -13 24 0 14 -7 19 -25 19 -15
0 -25 6 -26 15 -1 8 -2 21 -3 28 0 6 -6 12 -13 12 -6 0 -15 3 -19 8 -4 4 -14
7 -22 7 -19 0 -52 29 -52 46 0 13 55 36 64 27 3 -4 6 3 6 15 0 15 -8 24 -25
28 -14 3 -25 10 -25 15 0 5 -3 8 -7 8 -5 -1 -10 0 -13 1 -21 8 -60 9 -65 0
-11 -17 -43 -12 -41 7 1 14 -5 17 -26 15 -17 -2 -28 2 -28 9 0 6 -8 17 -17 24
-13 10 -17 27 -17 69 1 41 -2 56 -12 56 -8 0 -14 10 -14 23 0 12 -7 33 -16 45
-15 22 -15 41 -2 117 1 11 7 23 11 26 5 3 1 13 -8 22 -10 11 -13 25 -9 41 4
18 1 28 -15 38 -12 7 -21 23 -21 35 0 25 25 108 41 137 6 10 13 43 16 73 4 32
12 57 19 60 16 6 19 33 4 33 -5 0 -10 9 -10 20 0 11 4 20 9 20 4 0 8 19 8 42
0 23 5 44 11 46 5 1 8 12 5 22 -4 14 0 20 10 20 10 0 13 6 10 19 -3 13 5 30
21 48 28 30 31 39 16 48 -5 3 -10 17 -10 31 0 19 6 26 28 30 16 3 29 11 30 17
7 55 20 89 47 129 18 26 36 44 39 40 4 -3 4 1 0 11 -5 13 -1 17 21 17 26 0 27
2 22 39 -4 33 -2 40 14 44 10 3 19 13 19 22 0 9 5 25 10 36 9 15 15 17 31 9
17 -10 19 -8 17 22 -3 29 0 33 20 32 15 -1 22 4 22 17 0 22 29 59 47 59 6 0
22 18 34 40 13 22 29 40 36 40 8 0 29 16 49 35 19 19 39 35 45 35 6 0 8 4 5 9
-3 4 5 20 17 35 18 21 25 24 35 14 15 -15 29 1 39 45 3 17 12 27 24 27 10 0
23 9 29 20 6 11 21 20 34 20 17 0 25 8 33 33 8 28 13 32 38 29 17 -2 39 5 56
17 16 12 33 21 39 21 5 0 10 5 10 11 0 6 7 8 15 5 11 -4 19 3 25 19 5 14 14
25 20 25 6 0 16 12 22 26 9 18 17 24 32 20 12 -3 32 4 51 18 24 19 35 22 49
14 20 -11 34 1 75 65 15 22 20 25 24 13 11 -28 27 -17 27 18 0 40 12 52 30 31
16 -19 30 -19 30 0 0 8 7 15 15 15 8 0 15 3 16 8 4 40 31 90 46 85 6 -2 14 1
18 6 8 14 22 14 30 1z m1549 -150 c-14 -14 -39 14 -29 31 5 8 12 6 23 -5 11
-11 13 -19 6 -26z m1096 -977 c-8 -3 -20 -12 -27 -20 -10 -13 -12 -12 -10 6 1
16 8 21 27 20 15 0 19 -3 10 -6z m90 -38 c0 -9 -9 -15 -24 -15 -13 0 -26 7
-30 15 -4 11 2 15 24 15 20 0 30 -5 30 -15z m-73 -31 c-3 -3 -12 -4 -19 -1 -8
3 -5 6 6 6 11 1 17 -2 13 -5z m-4629 -270 c14 -9 21 -22 18 -31 -3 -8 -1 -23
5 -35 8 -16 7 -22 -8 -33 -15 -12 -20 -12 -30 2 -10 12 -13 13 -13 3 0 -7 -3
-10 -7 -6 -4 4 3 16 17 26 l25 19 -23 30 c-33 45 -26 55 16 25z m50 -142 c3
-19 1 -20 -21 -9 -18 8 -21 14 -13 24 15 17 30 11 34 -15z m-35 -77 c-3 -9 3
-25 13 -36 19 -21 18 -21 -11 -17 -19 2 -31 9 -33 21 -5 26 5 47 22 47 10 0
13 -6 9 -15z m1592 -1575 c3 -5 1 -10 -4 -10 -6 0 -11 5 -11 10 0 6 2 10 4 10
3 0 8 -4 11 -10z"/>
<path d="M2445 2643 c4 -27 15 -66 25 -88 9 -22 23 -60 31 -84 7 -24 20 -53
29 -65 18 -23 45 -131 36 -145 -3 -5 1 -11 9 -15 12 -4 9 -12 -14 -35 -16 -17
-46 -59 -67 -93 -49 -85 -49 -137 2 -216 20 -32 43 -68 51 -82 9 -14 37 -36
64 -49 54 -28 52 -28 125 45 41 42 114 69 122 45 9 -26 32 -10 32 22 0 17 2
41 4 52 2 11 1 14 -1 7 -3 -7 -8 -10 -12 -7 -11 6 7 119 19 123 28 10 55 43
56 69 1 15 2 48 3 73 1 43 2 44 16 23 10 -14 13 -32 9 -48 -4 -15 -2 -25 5
-25 6 0 10 -3 10 -7 -4 -26 2 -63 10 -58 5 3 13 0 16 -6 4 -6 18 -8 30 -5 18
5 29 -1 49 -26 24 -31 25 -32 44 -14 19 17 20 17 18 -1 -2 -26 53 -30 79 -6
11 10 31 19 45 20 14 1 19 0 12 -3 -19 -9 -4 -24 24 -24 36 0 29 -18 -8 -22
-18 -2 -32 -8 -31 -14 1 -7 -27 -13 -75 -17 -63 -5 -80 -10 -94 -28 -23 -27
-25 -99 -3 -99 8 0 15 7 15 16 0 13 7 15 35 10 38 -8 97 17 127 53 10 12 24
21 32 21 21 0 31 -21 15 -31 -8 -5 -12 -9 -9 -10 3 0 12 -2 20 -4 8 -2 26 -6
39 -9 14 -3 29 -12 33 -21 5 -8 18 -15 28 -15 11 0 26 -12 34 -29 9 -16 27
-32 41 -35 14 -4 25 -11 25 -16 0 -6 11 -10 24 -10 34 0 86 54 86 89 0 16 5
42 11 60 18 52 -5 142 -48 186 -19 19 -40 35 -48 35 -9 0 -15 10 -15 24 0 14
-5 28 -10 31 -6 4 -8 11 -4 16 3 5 9 7 14 4 14 -8 30 65 24 105 -3 19 -1 61 4
93 10 62 -1 140 -23 170 -10 14 -21 17 -50 11 -20 -3 -41 -12 -48 -18 -28 -28
-93 -66 -112 -66 -11 0 -54 18 -95 40 -59 31 -86 40 -127 40 -59 0 -65 -10
-49 -72 9 -32 7 -41 -11 -60 -11 -13 -26 -33 -32 -46 -18 -35 -31 -16 -24 35
4 33 3 44 -5 39 -6 -3 -16 3 -22 14 -6 11 -17 20 -24 20 -7 0 -21 9 -31 20
l-19 21 -14 -28 c-14 -26 -15 -27 -23 -6 -10 28 -27 37 -44 23 -9 -8 -29 -9
-54 -5 -22 4 -48 2 -58 -3 -16 -10 -43 0 -112 43 -29 18 -95 69 -120 92 -39
38 -53 31 -46 -24z m1042 -209 c-3 -3 -12 -4 -19 -1 -8 3 -5 6 6 6 11 1 17 -2
13 -5z m-7 -49 l35 -14 -39 2 c-22 1 -41 8 -44 15 -5 15 3 14 48 -3z m-520
-129 c0 -3 -4 -8 -10 -11 -5 -3 -10 -1 -10 4 0 6 5 11 10 11 6 0 10 -2 10 -4z
m510 -26 c0 -5 -2 -10 -4 -10 -3 0 -8 5 -11 10 -3 6 -1 10 4 10 6 0 11 -4 11
-10z m-744 -347 c-7 -7 -26 7 -26 19 0 6 6 6 15 -2 9 -7 13 -15 11 -17z"/>
<path d="M3607 2207 c11 -63 53 -99 53 -46 0 24 -26 65 -45 73 -11 4 -13 -2
-8 -27z"/>
<path d="M2672 1744 c-22 -15 -22 -17 -5 -29 17 -13 17 -14 -6 -23 -23 -8 -22
-9 14 -15 56 -9 69 6 43 49 -11 19 -21 34 -22 34 -1 0 -12 -7 -24 -16z"/>
<path d="M3298 1715 l-46 -32 26 -22 c32 -26 47 -26 71 -2 12 12 27 17 45 14
15 -3 26 -1 26 6 0 6 -11 11 -25 11 -22 0 -24 3 -18 30 5 25 2 30 -13 29 -11
-1 -40 -16 -66 -34z"/>
<path d="M2927 1673 c4 -10 13 -28 21 -40 12 -20 12 -24 -2 -39 -18 -17 -96
-29 -96 -14 0 5 -10 3 -22 -3 -50 -27 -51 -27 -22 -65 26 -33 27 -36 10 -46
-10 -6 -28 -18 -39 -27 l-21 -16 24 -13 c17 -9 73 -12 194 -11 197 1 226 3
226 13 0 5 3 8 8 7 27 -4 51 16 54 44 2 23 11 35 31 45 15 7 27 20 27 28 0 7
6 14 13 14 6 1 -3 8 -22 16 -19 8 -41 12 -48 10 -7 -3 -13 -1 -13 5 0 13 109
5 138 -10 38 -20 45 -11 19 23 -15 18 -24 36 -21 39 3 2 -2 7 -10 10 -9 4 -15
1 -13 -5 1 -7 -7 -13 -18 -15 -14 -3 -16 -1 -7 5 8 5 -2 8 -26 8 -23 -1 -49
-10 -67 -24 -18 -15 -38 -22 -53 -19 -17 3 -22 1 -18 -9 3 -8 -1 -14 -9 -14
-8 0 -15 7 -15 15 0 8 -4 15 -10 15 -5 0 -10 -4 -10 -9 0 -10 -57 -8 -67 3 -3
3 -13 6 -22 6 -9 0 -22 4 -30 9 -11 7 -9 14 13 37 14 16 26 32 26 36 0 12 -26
10 -56 -4 -22 -10 -28 -10 -32 0 -2 6 -12 12 -23 12 -13 0 -17 -5 -12 -17z"/>
<path d="M3530 1670 c0 -5 4 -10 9 -10 6 0 13 5 16 10 3 6 -1 10 -9 10 -9 0
-16 -4 -16 -10z"/>
<path d="M2707 1649 c-10 -9 -14 -20 -9 -23 12 -7 72 13 72 24 0 16 -46 16
-63 -1z"/>
<path d="M2755 1580 c-3 -5 1 -10 9 -10 9 0 16 5 16 10 0 6 -4 10 -9 10 -6 0
-13 -4 -16 -10z"/>
<path d="M3490 1579 c0 -5 5 -7 10 -4 6 3 10 8 10 11 0 2 -4 4 -10 4 -5 0 -10
-5 -10 -11z"/>
<path d="M3645 1103 c-11 -3 -28 -12 -39 -22 -10 -9 -21 -15 -25 -13 -11 4
-64 -54 -74 -82 -6 -14 -13 -17 -32 -12 -14 4 -25 2 -25 -4 0 -15 -38 -50 -54
-50 -8 0 -18 -9 -21 -20 -3 -11 -11 -20 -16 -20 -22 0 -6 -29 24 -41 17 -7 44
-21 60 -31 46 -32 86 -39 149 -26 31 6 55 15 53 18 -2 4 25 19 60 35 69 30 83
40 88 71 2 10 10 32 17 47 16 32 6 58 -26 67 -10 3 -34 13 -53 24 l-34 18 22
17 c12 9 19 20 15 24 -8 8 -57 8 -89 0z"/>
<path d="M2432 1041 c-10 -6 -9 -11 4 -22 9 -8 20 -14 23 -13 3 0 19 -17 34
-39 17 -23 34 -37 42 -33 8 3 17 1 20 -4 8 -13 25 -13 25 0 0 6 -7 10 -15 10
-8 0 -19 9 -25 20 -6 11 -20 20 -31 20 -11 0 -18 4 -15 9 6 9 -30 61 -42 61
-4 0 -13 -4 -20 -9z"/>
<path d="M1690 906 c0 -2 6 -9 14 -15 10 -9 16 -8 26 4 11 13 8 15 -14 15 -14
0 -26 -2 -26 -4z"/>
<path d="M2592 875 c0 -16 2 -22 5 -12 2 9 2 23 0 30 -3 6 -5 -1 -5 -18z"/>
</g>
</svg>
