<?xml version="1.0" standalone="no"?>
<!DOCTYPE svg PUBLIC "-//W3C//DTD SVG 20010904//EN"
 "http://www.w3.org/TR/2001/REC-SVG-20010904/DTD/svg10.dtd">
<svg version="1.0" xmlns="http://www.w3.org/2000/svg"
 width="1472.000000pt" height="832.000000pt" viewBox="0 0 1472.000000 832.000000"
 preserveAspectRatio="xMidYMid meet">

<g transform="translate(0.000000,832.000000) scale(0.100000,-0.100000)"
fill="#000000" stroke="none">
<path d="M6608 6728 c17 -6 32 -15 32 -20 0 -13 -56 -68 -69 -68 -6 0 -11 -11
-11 -23 0 -26 -23 -51 -57 -61 -13 -4 -23 -13 -23 -19 0 -7 -9 -19 -20 -27
-11 -8 -25 -29 -31 -48 -9 -28 -13 -31 -26 -21 -12 10 -16 10 -24 -2 -5 -8 -7
-22 -5 -32 3 -12 -4 -22 -20 -29 -34 -16 -111 -89 -118 -113 -3 -12 -4 -8 -2
8 2 15 -1 30 -5 33 -5 3 -9 -4 -9 -16 0 -12 -7 -28 -15 -36 -8 -9 -15 -30 -16
-47 l-1 -32 -11 35 c-10 33 -11 29 -20 -65 -19 -193 18 -382 106 -550 53 -100
184 -237 268 -278 87 -44 199 -62 285 -48 70 12 199 68 199 86 0 20 16 34 31
28 14 -5 15 -3 5 16 -12 22 -6 46 8 36 5 -2 16 4 26 15 10 11 23 20 30 20 22
0 37 43 25 74 -6 16 -9 31 -6 33 2 3 7 -5 11 -16 9 -30 21 -26 34 9 6 18 6 28
1 25 -6 -4 -10 3 -10 14 0 12 5 21 11 21 5 0 7 5 4 10 -3 6 -1 10 4 10 6 0 11
13 11 29 0 17 5 33 11 37 8 5 10 47 6 143 -8 204 -49 344 -162 547 -57 104
-180 233 -261 276 -62 32 -147 58 -188 57 l-31 -1 33 -10z m562 -1156 c0 -15
-2 -15 -10 -2 -13 20 -13 33 0 25 6 -3 10 -14 10 -23z m-30 -53 c0 -14 -38
-49 -55 -49 -25 0 -17 20 13 33 17 7 27 18 24 26 -3 8 0 11 7 7 6 -4 11 -11
11 -17z m-132 -164 c-2 -1 -12 -7 -24 -13 -15 -8 -21 -8 -21 1 0 7 11 13 24
13 14 1 23 1 21 -1z"/>
<path d="M7946 6705 c-155 -63 -270 -182 -383 -395 -166 -312 -164 -694 5
-882 98 -109 201 -158 339 -159 80 -1 207 30 165 41 l-22 5 21 13 c12 8 18 9
15 3 -4 -6 -1 -9 7 -5 7 2 14 10 14 17 0 12 22 61 48 108 8 14 26 31 40 39 14
7 25 20 25 28 0 8 11 27 25 43 13 16 22 36 19 43 -3 7 9 25 25 39 17 14 31 32
31 39 0 7 11 30 25 50 14 20 25 41 25 47 0 5 9 13 20 16 16 5 19 12 14 28 -6
19 -5 20 8 9 13 -10 16 -7 22 28 3 22 11 40 16 40 12 0 13 -17 1 -24 -5 -3 -8
-18 -8 -33 0 -16 2 -22 4 -15 3 6 8 10 12 8 4 -3 7 3 8 12 1 9 5 35 10 57 4
22 8 101 8 175 -1 163 -26 287 -85 410 -100 206 -275 289 -454 215z"/>
<path d="M6171 6280 c0 -8 4 -22 9 -30 12 -18 12 -2 0 25 -6 13 -9 15 -9 5z"/>
<path d="M9060 5760 c-76 -12 -141 -35 -234 -83 -236 -122 -416 -422 -416
-692 0 -128 29 -206 111 -299 39 -45 153 -110 179 -103 11 3 23 1 26 -4 3 -5
20 -9 37 -8 27 0 29 2 12 10 -18 8 -18 9 5 8 43 -2 46 2 15 16 -24 11 -26 14
-10 16 17 1 16 2 -5 9 -24 8 -24 8 -2 9 16 1 22 7 22 24 0 13 4 27 9 32 18 19
51 86 51 103 0 9 9 28 20 42 11 14 20 30 20 36 0 6 13 35 30 65 16 30 30 64
30 76 0 12 4 23 9 25 12 5 59 83 66 111 4 14 18 46 31 73 13 26 24 52 24 58 0
6 20 34 45 61 25 28 43 55 41 62 -3 6 6 23 20 38 13 14 24 30 24 35 0 5 11 21
24 37 13 15 27 39 31 52 4 14 11 29 16 35 5 6 18 22 29 35 11 13 20 32 20 41
0 56 -152 99 -280 80z m250 -55 c11 -13 10 -14 -4 -9 -9 3 -16 10 -16 15 0 13
6 11 20 -6z"/>
<path d="M5630 5739 c0 -6 7 -9 15 -5 8 3 15 2 15 -3 0 -5 -15 -12 -32 -16
-29 -6 -31 -8 -13 -15 17 -7 17 -9 3 -9 -10 -1 -18 -7 -18 -15 0 -17 -54 -76
-69 -76 -6 0 -17 -13 -26 -30 -8 -16 -27 -37 -40 -46 -14 -9 -25 -24 -25 -33
0 -9 -13 -22 -30 -29 -16 -7 -32 -22 -35 -33 -4 -10 -11 -19 -16 -19 -6 0 -8
-4 -5 -9 4 -5 -12 -24 -34 -41 -28 -22 -40 -39 -40 -58 l-1 -27 -14 25 c-8 14
-14 33 -15 43 0 9 -5 17 -11 17 -14 0 -6 -114 13 -189 32 -131 116 -283 218
-393 141 -154 293 -226 459 -216 283 16 415 283 310 625 -57 185 -185 358
-343 466 -76 51 -266 113 -266 86z m43 -36 c-7 -2 -19 -2 -25 0 -7 3 -2 5 12
5 14 0 19 -2 13 -5z m-426 -415 c-3 -7 -5 -2 -5 12 0 14 2 19 5 13 2 -7 2 -19
0 -25z"/>
<path d="M5232 5415 c0 -16 2 -22 5 -12 2 9 2 23 0 30 -3 6 -5 -1 -5 -18z"/>
<path d="M7080 5425 c-11 -13 -15 -13 -22 -3 -8 10 -9 10 -6 -1 6 -23 22 -23
36 -1 15 24 10 26 -8 5z"/>
<path d="M7197 4959 c-253 -22 -498 -107 -708 -246 -135 -88 -314 -280 -408
-436 -75 -124 -182 -373 -227 -525 -56 -195 -78 -328 -78 -482 0 -130 3 -153
27 -225 71 -214 259 -362 512 -404 182 -30 366 -23 690 26 149 23 213 28 375
28 178 0 242 -6 505 -41 32 -4 37 -3 25 6 -13 10 -13 11 2 7 9 -3 33 -9 52
-13 30 -5 36 -3 36 11 0 9 -8 24 -17 33 -16 16 -16 17 0 20 13 3 17 14 17 47
0 33 6 51 25 71 28 30 31 40 13 47 -9 4 -4 14 15 31 16 15 27 36 27 51 0 14 5
25 10 25 6 0 10 9 10 20 0 10 9 24 20 30 11 6 17 16 14 22 -4 7 -3 8 5 4 6 -4
14 0 17 11 3 10 15 35 26 56 11 21 21 51 22 67 3 39 23 61 36 40 10 -17 12
-16 33 28 10 20 11 30 4 26 -7 -3 0 6 16 20 15 14 27 35 27 46 0 12 7 28 15
36 8 9 15 24 15 33 0 10 7 24 15 31 8 7 15 23 15 35 0 13 3 31 7 41 6 16 7 16
13 -2 6 -15 10 -11 18 21 6 22 11 45 11 50 0 6 10 12 22 15 22 5 48 60 29 60
-14 0 2 41 32 86 15 23 28 47 28 54 0 6 5 8 10 5 6 -4 10 8 10 29 0 19 4 37
10 41 5 3 19 20 32 37 12 17 16 28 9 24 -11 -7 -11 -4 -1 15 7 13 17 27 23 30
5 4 11 33 13 65 2 31 8 62 14 68 13 13 13 5 -1 -31 -5 -15 -7 -24 -3 -21 3 4
14 -2 23 -13 17 -21 17 -21 17 -1 0 11 -5 20 -10 19 -6 -1 -10 12 -11 30 0 18
-6 38 -14 45 -12 11 -13 11 -6 -1 5 -10 4 -12 -4 -7 -6 4 -9 11 -6 16 8 14
-36 91 -48 83 -6 -3 -7 -1 -3 5 7 12 -35 77 -115 177 -193 243 -511 436 -822
499 -77 16 -285 37 -342 34 -16 0 -70 -4 -118 -9z m418 -289 c113 -30 274
-117 370 -199 76 -65 161 -171 218 -271 94 -168 120 -402 68 -610 -24 -92 -96
-251 -131 -288 -13 -13 -22 -35 -22 -49 0 -14 -4 -20 -7 -14 -8 12 -118 -96
-113 -112 1 -5 -2 -6 -7 -2 -6 3 -33 -12 -60 -33 -66 -52 -218 -126 -314 -152
-99 -27 -267 -36 -367 -21 -109 17 -243 65 -335 119 -107 64 -245 201 -309
309 -91 155 -148 380 -132 528 46 422 333 730 756 810 103 20 281 13 385 -15z
m822 -275 c32 -32 35 -39 29 -78 -3 -23 -7 -50 -8 -59 -1 -9 -5 -16 -8 -16 -3
1 -22 -6 -42 -15 -54 -24 -89 -21 -127 11 -26 22 -34 36 -37 72 -8 79 31 120
115 120 36 0 49 -6 78 -35z m170 -187 c-3 -8 -6 -5 -6 6 -1 11 2 17 5 13 3 -3
4 -12 1 -19z m-297 -738 c0 -5 -5 -10 -11 -10 -5 0 -7 5 -4 10 3 6 8 10 11 10
2 0 4 -4 4 -10z m-100 -126 c0 -8 -4 -14 -8 -14 -4 0 -8 9 -8 19 0 11 4 17 8
15 4 -3 8 -12 8 -20z m-46 -66 c-9 -14 -23 2 -17 18 4 12 8 13 14 3 4 -7 5
-17 3 -21z m56 28 c0 -2 -8 -10 -17 -17 -16 -13 -17 -12 -4 4 13 16 21 21 21
13z m-70 -81 c-6 -8 -9 -19 -5 -24 3 -7 0 -8 -9 -5 -12 5 -13 9 -3 25 6 10 16
19 21 19 4 0 3 -7 -4 -15z m-75 -35 c-3 -5 -12 -10 -18 -10 -7 0 -6 4 3 10 19
12 23 12 15 0z m-388 -496 c-3 -3 -12 -4 -19 -1 -8 3 -5 6 6 6 11 1 17 -2 13
-5z m90 -10 c-3 -3 -12 -4 -19 -1 -8 3 -5 6 6 6 11 1 17 -2 13 -5z"/>
<path d="M7257 4405 c-235 -47 -431 -238 -483 -472 -31 -139 -5 -302 69 -433
49 -89 160 -191 258 -239 191 -92 385 -94 567 -5 330 162 440 575 235 886
-137 209 -393 313 -646 263z m276 -235 c112 -42 206 -141 241 -255 27 -83 18
-200 -20 -281 -35 -74 -121 -162 -194 -197 -280 -136 -603 91 -577 406 22 257
299 421 550 327z"/>
<path d="M8630 3980 c-9 -6 -10 -10 -3 -10 6 0 15 5 18 10 8 12 4 12 -15 0z"/>
<path d="M7596 2296 c-70 -30 -137 -92 -174 -161 -24 -45 -27 -60 -27 -155 0
-87 4 -113 22 -152 31 -67 104 -142 166 -169 72 -31 175 -32 235 0 24 12 46
21 48 19 10 -11 -36 -74 -66 -90 -43 -22 -133 -24 -210 -3 -62 16 -85 13 -101
-16 -29 -56 69 -103 216 -104 79 0 97 3 147 28 71 35 114 85 129 152 15 69 9
306 -10 328 -16 20 -55 22 -101 5 -25 -8 -48 -8 -97 2 -58 11 -66 11 -83 -5
-25 -22 -26 -77 -3 -100 14 -15 29 -16 95 -10 l78 6 0 -35 c0 -43 -30 -69 -99
-86 -63 -15 -118 -1 -168 43 -52 46 -73 98 -73 185 0 85 19 132 74 180 76 66
167 67 263 1 32 -21 65 -39 74 -39 46 0 66 83 28 121 -42 42 -128 72 -219 76
-73 3 -93 0 -144 -21z"/>
<path d="M5216 2294 c-14 -14 -16 -56 -14 -347 l3 -332 28 -9 c21 -8 35 -7 55
5 26 14 27 18 30 117 l3 102 78 0 c95 0 167 20 223 63 56 43 79 85 85 155 11
116 -41 203 -143 242 -73 27 -323 30 -348 4z m275 -104 c20 -6 48 -22 63 -36
21 -22 26 -36 26 -78 -1 -87 -46 -123 -168 -133 l-81 -6 -3 122 c-2 67 -1 126
0 131 5 13 117 13 163 0z"/>
<path d="M5887 2106 c-108 -29 -152 -107 -84 -150 12 -8 22 -7 35 2 57 41 81
52 114 52 46 0 86 -33 94 -77 l7 -33 -79 0 c-99 0 -145 -13 -189 -51 -85 -75
-57 -196 57 -243 51 -22 100 -20 159 5 l50 22 20 -22 c22 -23 49 -27 80 -11
18 10 19 23 19 178 0 92 -5 185 -11 207 -15 55 -64 100 -129 119 -63 19 -79
19 -143 2z m147 -309 c24 -18 11 -62 -26 -90 -34 -26 -101 -26 -129 -1 -28 25
-22 74 11 91 33 17 121 16 144 0z"/>
<path d="M6831 2091 c-11 -11 -25 -37 -30 -58 -6 -21 -21 -80 -35 -132 -14
-51 -27 -96 -30 -98 -8 -9 -33 51 -66 157 -33 105 -55 140 -91 140 -35 0 -56
-36 -99 -169 -25 -79 -46 -129 -51 -124 -5 5 -27 67 -48 138 -41 134 -54 155
-101 155 -25 0 -60 -26 -60 -45 0 -29 135 -417 151 -434 28 -30 82 -28 107 4
10 13 36 69 57 125 21 55 41 103 45 105 4 2 24 -43 44 -102 48 -143 56 -153
111 -153 42 0 46 3 63 38 27 52 132 385 132 416 0 27 -32 56 -62 56 -10 0 -27
-9 -37 -19z"/>
<path d="M7068 2090 c-64 -34 -104 -108 -91 -171 9 -44 71 -94 134 -108 85
-19 109 -31 115 -58 14 -55 -70 -80 -151 -44 -74 33 -105 24 -105 -29 0 -53
73 -89 180 -90 116 0 200 64 200 152 0 83 -43 125 -165 163 -46 14 -85 32 -89
40 -9 25 4 43 40 55 29 10 41 8 90 -14 66 -31 68 -31 88 -10 21 21 20 67 -2
87 -53 49 -177 62 -244 27z"/>
<path d="M8096 2094 c-14 -14 -16 -47 -14 -247 l3 -231 28 -16 c24 -13 30 -13
55 0 l27 16 5 149 c4 122 8 155 23 176 25 37 66 52 120 44 38 -6 48 -4 66 14
44 44 13 100 -60 108 -33 4 -59 -1 -97 -17 l-53 -23 -23 22 c-27 25 -58 27
-80 5z"/>
<path d="M8549 2087 c-56 -30 -78 -65 -61 -101 18 -39 57 -44 92 -11 19 19 43
29 74 32 40 5 48 2 76 -25 17 -17 30 -41 30 -55 0 -24 -2 -25 -98 -29 -75 -3
-106 -8 -132 -24 -105 -61 -106 -196 -3 -257 18 -10 56 -21 85 -24 44 -4 61 0
101 21 56 30 57 31 57 11 0 -33 77 -48 101 -19 16 19 14 350 -2 393 -27 71
-101 110 -205 111 -55 0 -81 -5 -115 -23z m207 -289 c11 -12 -6 -59 -31 -84
-35 -35 -112 -34 -145 1 -20 21 -22 28 -12 50 7 14 22 30 34 35 25 10 143 8
154 -2z"/>
<path d="M8987 2092 c-15 -16 -17 -48 -17 -238 0 -161 3 -225 13 -237 17 -24
68 -31 92 -13 18 13 20 29 25 180 5 154 7 167 27 187 30 30 80 30 105 0 16
-20 18 -42 18 -170 0 -80 3 -156 6 -168 12 -44 102 -50 118 -8 3 9 6 86 6 170
0 134 2 156 18 176 26 31 78 31 104 0 16 -20 18 -43 18 -180 0 -86 4 -161 8
-168 14 -22 57 -32 83 -19 24 12 24 12 27 201 2 170 0 194 -16 225 -47 86
-172 105 -263 39 -13 -10 -23 -8 -49 11 -47 33 -128 39 -173 13 -33 -20 -34
-20 -56 -2 -30 24 -73 24 -94 1z"/>
</g>
</svg>
